<svg xmlns="http://www.w3.org/2000/svg" viewBox="0 0 128 128" role="img" aria-label="Blossom tree logo">
  <rect width="128" height="128" fill="#6f8968"/>
  <g opacity="0.28">
    <circle cx="22" cy="18" r="8" fill="#91a286"/>
    <circle cx="105" cy="22" r="12" fill="#8da182"/>
    <circle cx="95" cy="97" r="10" fill="#869b7c"/>
  </g>
  <g fill="none" stroke="#22271d" stroke-linecap="round" stroke-linejoin="round">
    <path d="M61 121C61 110 60 93 60 77C59 61 58 50 56 37C54 24 49 15 43 10" stroke-width="13"/>
    <path d="M55 69C44 68 32 66 19 58C12 54 8 47 8 40" stroke-width="9"/>
    <path d="M58 79C70 79 82 79 95 71C109 62 116 52 118 40" stroke-width="8"/>
    <path d="M56 39C66 39 78 38 92 30C103 23 108 16 109 10" stroke-width="6"/>
    <path d="M52 28C43 26 30 22 18 14C12 10 8 6 6 2" stroke-width="6"/>
    <path d="M61 92C52 96 40 103 31 114" stroke-width="6"/>
    <path d="M66 93C78 95 91 99 108 110" stroke-width="5"/>
  </g>
  <g stroke="#d9d7c3" stroke-width="1.4">
    <g fill="#f0efe8">
      <path d="M16 17C18 13 21 11 25 12C29 11 32 13 34 17C31 18 29 22 25 23C21 22 19 19 16 17Z"/>
      <path d="M36 49C38 45 42 43 46 44C50 43 53 45 54 49C51 50 49 54 45 55C41 54 39 51 36 49Z"/>
      <path d="M64 30C66 26 70 24 74 25C78 24 81 26 82 30C79 31 77 35 73 36C69 35 67 32 64 30Z"/>
      <path d="M76 58C78 54 82 52 86 53C90 52 93 54 94 58C91 59 89 63 85 64C81 63 79 60 76 58Z"/>
      <path d="M87 26C89 22 92 20 96 21C100 20 103 22 105 26C102 27 100 31 96 32C92 31 90 28 87 26Z"/>
      <path d="M23 88C25 84 29 82 33 83C37 82 40 84 41 88C38 89 36 93 32 94C28 93 26 90 23 88Z"/>
      <path d="M83 87C85 83 89 81 93 82C97 81 100 83 101 87C98 88 96 92 92 93C88 92 86 89 83 87Z"/>
      <path d="M96 108C98 104 101 102 105 103C109 102 112 104 114 108C111 109 109 113 105 114C101 113 99 110 96 108Z"/>
      <path d="M39 109C41 105 44 103 48 104C52 103 55 105 57 109C54 110 52 114 48 115C44 114 42 111 39 109Z"/>
      <path d="M53 49C55 45 58 43 62 44C66 43 69 45 71 49C68 50 66 54 62 55C58 54 56 51 53 49Z"/>
    </g>
    <path d="M61 98C64 96 67 96 69 98C68 101 66 103 63 104C61 103 60 101 61 98Z" fill="#f0b8c7"/>
  </g>
</svg>
