<svg xmlns="http://www.w3.org/2000/svg" viewBox="0 0 1600 240" role="img" aria-label="Blossom branch header background">
  <rect width="1600" height="240" fill="#33a4bd"/>
  <g opacity="0.22" stroke="#bde2e6" stroke-width="2">
    <path d="M0 22L1600 180"/>
    <path d="M0 70L1600 28"/>
    <path d="M0 154L1600 86"/>
    <path d="M0 214L1600 156"/>
  </g>
  <g fill="none" stroke="#6f7446" stroke-linecap="round" stroke-linejoin="round">
    <path d="M36 192C120 170 174 150 249 129C319 109 396 91 476 86C566 80 658 88 734 102C850 124 972 143 1091 133C1221 122 1343 87 1482 62" stroke-width="12"/>
    <path d="M182 180C165 154 153 131 144 104" stroke-width="5"/>
    <path d="M270 126C292 106 307 84 319 55" stroke-width="5"/>
    <path d="M416 95C394 76 376 56 360 25" stroke-width="4"/>
    <path d="M522 90C544 69 562 42 579 12" stroke-width="4"/>
    <path d="M683 96C706 71 728 44 744 16" stroke-width="4"/>
    <path d="M818 115C846 96 868 76 890 41" stroke-width="5"/>
    <path d="M982 136C965 110 950 91 932 67" stroke-width="4"/>
    <path d="M1120 131C1146 110 1167 90 1188 56" stroke-width="5"/>
    <path d="M1284 106C1268 84 1254 66 1239 39" stroke-width="4"/>
    <path d="M1438 75C1458 54 1474 33 1486 8" stroke-width="4"/>
    <path d="M907 141C919 161 931 178 948 202" stroke-width="4"/>
    <path d="M1185 121C1203 143 1220 160 1247 186" stroke-width="4"/>
  </g>
  <g fill="#f7f4eb" stroke="#b3af88" stroke-width="1.4">
    <path d="M135 93C141 83 150 80 159 83C169 80 177 84 181 94C174 98 170 107 160 110C150 108 143 101 135 93Z"/>
    <path d="M226 147C232 137 241 134 250 137C260 134 268 138 272 148C265 152 261 161 251 164C241 162 234 155 226 147Z"/>
    <path d="M336 46C342 36 351 33 360 36C370 33 378 37 382 47C375 51 371 60 361 63C351 61 344 54 336 46Z"/>
    <path d="M497 27C503 17 512 14 521 17C531 14 539 18 543 28C536 32 532 41 522 44C512 42 505 35 497 27Z"/>
    <path d="M660 27C666 17 675 14 684 17C694 14 702 18 706 28C699 32 695 41 685 44C675 42 668 35 660 27Z"/>
    <path d="M804 56C810 46 819 43 828 46C838 43 846 47 850 57C843 61 839 70 829 73C819 71 812 64 804 56Z"/>
    <path d="M953 88C959 78 968 75 977 78C987 75 995 79 999 89C992 93 988 102 978 105C968 103 961 96 953 88Z"/>
    <path d="M1109 49C1115 39 1124 36 1133 39C1143 36 1151 40 1155 50C1148 54 1144 63 1134 66C1124 64 1117 57 1109 49Z"/>
    <path d="M1224 32C1230 22 1239 19 1248 22C1258 19 1266 23 1270 33C1263 37 1259 46 1249 49C1239 47 1232 40 1224 32Z"/>
    <path d="M1393 8C1399 -2 1408 -5 1417 -2C1427 -5 1435 -1 1439 9C1432 13 1428 22 1418 25C1408 23 1401 16 1393 8Z"/>
    <path d="M997 191C1003 181 1012 178 1021 181C1031 178 1039 182 1043 192C1036 196 1032 205 1022 208C1012 206 1005 199 997 191Z"/>
    <path d="M1260 174C1266 164 1275 161 1284 164C1294 161 1302 165 1306 175C1299 179 1295 188 1285 191C1275 189 1268 182 1260 174Z"/>
    <path d="M724 77C730 67 739 64 748 67C758 64 766 68 770 78C763 82 759 91 749 94C739 92 732 85 724 77Z"/>
    <path d="M584 59C590 49 599 46 608 49C618 46 626 50 630 60C623 64 619 73 609 76C599 74 592 67 584 59Z"/>
  </g>
</svg>
